<svg xmlns="http://www.w3.org/2000/svg" viewBox="0 0 200 200" fill="none">
  <path d="M100 10 Q120 50 100 100 Q80 150 100 190" stroke="#3D5A3A" stroke-width="2" stroke-linecap="round" opacity="0.15"/>
  <path d="M80 20 Q100 60 80 110 Q60 160 80 180" stroke="#3D5A3A" stroke-width="1.5" stroke-linecap="round" opacity="0.1"/>
  <path d="M120 20 Q140 60 120 110 Q100 160 120 180" stroke="#3D5A3A" stroke-width="1.5" stroke-linecap="round" opacity="0.1"/>
  <path d="M60 40 Q80 80 60 130 Q40 170 60 170" stroke="#3D5A3A" stroke-width="1" stroke-linecap="round" opacity="0.08"/>
  <path d="M140 40 Q160 80 140 130 Q120 170 140 170" stroke="#3D5A3A" stroke-width="1" stroke-linecap="round" opacity="0.08"/>
  <path d="M100 30 Q110 70 100 120 Q90 170 100 170" stroke="#3D5A3A" stroke-width="1" stroke-linecap="round" opacity="0.12"/>
</svg>
